# xmcd
# 
# Track frame offsets:
#     150
#     14410
#     29615
#     44055
#     60302
#     73702
#     87780
#     99655
#     117892
#     129877
#     143922
#     161237
# 
# Disc length: 2308
# 
# Revision: 6
# Processed by: cddbd v1.5.2PL0 Copyright (c) Steve Scherf et al.
# Submitted via: fre:ac v1.0.17
# 
DISCID=a509020c
DTITLE=Ella Fitzgerald - SONG IN A MELLOW MOOD
DYEAR=1954
DGENRE=Jazz
TTITLE0=I'M GLAD THERE IS YOU(In This World of Ordinary People)
TTITLE1=WHAT IS THERE TO SAY
TTITLE2=PEOPLE WILL SAY WE'RE IN LOVE
TTITLE3=PLEASE BE KIND
TTITLE4=UNTIL THE REAL THING COMES ALONG
TTITLE5=MAKIN' WHOOPEE
TTITLE6=IMAGINATION
TTITLE7=STARDUST
TTITLE8=MY HEART BELONGS TO DADDY
TTITLE9=YOU LEAVE ME BREATHLESS
TTITLE10=BABY, WHAT ELSE CAN I DO
TTITLE11=NICE WORK IF YOU CAN GET IT
EXTD=YEAR: 1954 ID3G: 8
EXTT0=
EXTT1=
EXTT2=
EXTT3=
EXTT4=
EXTT5=
EXTT6=
EXTT7=
EXTT8=
EXTT9=
EXTT10=
EXTT11=
PLAYORDER=
